<?xml version="1.0" encoding="UTF-8"?>
<svg xmlns="http://www.w3.org/2000/svg" width="130.64mm" height="155.56mm" viewBox="0 0 370.32 440.97">
  <defs>
    <style>
      .cls-1, .cls-2 {
        stroke-width: 0px;
      }

      .cls-2 {
        fill: #ffa9d0;
      }
    </style>
  </defs>
  <g id="base">
    <g>
      <path class="cls-2" d="m198.45,30.82c7.47,0,13.82-6.35,13.82-13.82s-6.32-13.82-13.82-13.82-13.82,6.35-13.82,13.82,6.32,13.82,13.82,13.82h0Z"/>
      <path class="cls-2" d="m13.36,222.78c24.91,2.33,45.03-15.87,61.87-31.88,20.99-19.99,40.55-41.48,58.45-64.26,11-13.96,21.33-28.41,31.01-43.26,3.28-5.03,10.02-6.46,15.06-3.18,4.74,3.08,6.22,9.19,3.77,14.08-2.17,4.79-4.67,10.3-6.68,15.21-6.37,15.41-11.81,31.35-16.51,47.35-23.26,80.18-37.41,164.99-76.92,239.76-10.84,21.37-26.75,44.55-53.66,43.29-19.81-1.14-30.71-17.46-29.68-36.38.61-16.52,7.87-31.34,15.9-45.32,3.98-6.82,8.39-13.37,13.05-19.69,47.62-60.58,107.53-110.15,163.93-161.58,11.29-9.75,27.28,3.45,20.02,16.33-14.82,25.11-24.88,52.94-29.73,81.67,0,0-22.41-13.2-22.41-13.2,19.42-15.52,40.68-32.29,60.3-47.47,8.66-6.87,21.76-.2,21.38,10.76-.26,11.75,1.49,23.57,4.99,34.8,0,0-21.24-4.68-21.24-4.68,34.65-34.92,65.93-75.9,96.34-114.7,5.15-7.43,16.71-2.45,14.58,6.49-5.07,19.19-7.71,39.08-7.97,58.98.03,6.95.21,13.2,5.33,17.5,9.05,6.7,23.77-.24,32.75-5.01.63-.35,1.42-.12,1.77.51.31.57.15,1.26-.34,1.65-8.47,6.39-18.47,12.53-29.62,12.04-14.29-1.02-19.39-13.8-20.27-26.2-1.06-10.45-1.34-20.95-.95-31.48.44-10.52,1.52-21.05,3.38-31.48,0,0,14.58,6.49,14.58,6.49-6.92,10.57-13.91,21.1-21.01,31.61-21.52,31.7-44.19,62.77-70.15,91.1-4.68,5.12-12.62,5.47-17.74.79-1.69-1.55-2.83-3.41-3.5-5.46-2.47-6.88-4.38-13.97-5.64-21.19-1.27-7.21-1.95-14.54-2.02-21.89,0,0,21.71,10.5,21.71,10.5-4.91,4.04-9.8,8.11-14.75,12.11-13.78,11.24-30.63,24.89-44.53,35.97-9.91,7.96-24.48-.68-22.43-13.06,1.32-8.06,3.15-16.03,5.29-23.9,6.41-23.45,16.34-45.94,29.27-66.5,0,0,19.77,16.74,19.77,16.74-46.82,39.1-93.08,78.49-138.06,119.11-11.12,10.19-21.91,20.55-31.65,31.73-7.29,8.37-13.89,17.24-19.59,26.74-5.53,9.03-10,19.26-10.94,29.76-.6,6.83.43,13.7,4.1,18.83,7.98,11.43,24.82,10.83,35.82,3.98,12.53-7.79,19.8-21.03,26.19-34.09,20.15-40.81,29.19-85.73,37.27-130.24,8.7-48.78,17.85-99.05,36.26-145.64,4.26-10.92,9.16-21.78,14.43-32.26,0,0,18.82,10.9,18.82,10.9-5.34,7.53-10.82,14.96-16.51,22.22-22.81,28.85-48.77,55.3-77.51,78.26-18.04,14.23-37.98,29.8-61.88,30.93-4.76.12-9.51-.4-14.01-1.68-.69-.2-1.09-.91-.9-1.6.18-.63.78-1.01,1.41-.94h0Z"/>
    </g>
  </g>
  <g id="mask">
    <path class="cls-1" d="m198.45,34.02c4.36,0,8.94-1.9,12.03-4.98s5.17-7.79,4.98-12.03-1.64-8.96-4.98-12.03-7.42-4.98-12.03-4.98c-4.36,0-8.94,1.9-12.03,4.98s-5.17,7.79-4.98,12.03,1.64,8.96,4.98,12.03,7.42,4.98,12.03,4.98h0Z"/>
    <path class="cls-1" d="m13.74,223.87c23.92,4.85,62.82-36.01,78.09-52.86,13.18-14.68,26.17-30.63,38.14-46.32,10.92-14.14,21.38-28.62,31.75-43.17,9.67-12.97,29.75-2.88,25.22,12.55-16.54,53.37-39.82,135.04-56.24,189.24-10.24,36.43-23.02,72.28-40.75,105.8-13.84,25.4-36.96,60.12-70.59,50.09-1.6-.56-2.82-1.7-4.07-2.71-5.88-5.06-9.77-12.08-11.9-19.43-5.39-20.2,1.78-41.3,10.61-59.36,7.11-14.52,16.69-28.53,26.39-41.46,15.37-20.03,32.58-38.5,50.74-56,23.4-21.41,47.32-42.25,71.4-62.91,8.14-6.92,16.26-13.86,24.65-20.58,2.24-1.83,6.92-5.37,9.28-7.06,7.55-5.56,18.18-3.94,23.74,3.61,3.95,5.35,4.22,12.12,1.53,17.72-8.92,21.28-18.73,44.76-27.12,66.05-2.21,5.69-5.04,12.91-6.46,17.78.22-1.56.25-3.28-.09-4.85,0,0-28.68-11.88-28.68-11.88,4.87-3.52,9.91-7.15,14.82-10.78,14.07-10.63,29.59-21.41,41.77-33.82,10.37-10.38,28.43-3.6,29.52,10.91.76,8.99,1.88,18.76,4.09,27.33.39,1.55.78,2.5,1.16,3.6-.02.1-.23-.38-1-1.06,0,0-24.92,1.68-24.92,1.68,27.17-33.86,55.38-68.13,83.37-101.29,0,0,12.14-14.29,12.14-14.29,0,0,.8-.94.8-.94,7.35-8.44,20.98-1.14,17.94,9.7-1.94,6.9-3.62,14.31-5,21.33-2.4,13.5-7.02,39.06.61,50.58,1.55,2.07,3.74,3.43,6.74,3.58,4.3.63,8.79.03,13.1-.81,3.41-.75,6.81-1.86,10.05-3.23,1.13-.47,2.24-1.02,3.38-1.52.86-.38,1.87,0,2.25.86.34.75.08,1.61-.56,2.08-2.04,1.51-4.1,3.01-6.32,4.26-6.67,3.89-14.22,6.7-22.01,7.12-20.44,1.44-25.24-24.71-25.95-41.44-.68-14.99.46-29.7,2.59-44.46.15-1.01.29-1.94.49-3.05,0,0,18.74,8.76,18.74,8.76,0,0-10.54,15.51-10.54,15.51-17.58,25.64-35.61,51.59-53.62,76.87-5.44,7.62-16.3,22.91-21.8,30.47-5.23,7.26-15.35,8.91-22.61,3.69-3.48-2.58-5.88-6.13-7.62-9.36-3.38-6.52-5.26-13.72-6.76-20.42-1.41-6.53-2.48-12.88-3.33-19.43,0,0-.35-2.92-.35-2.92l31.51,8.94c-1.1,1.38-2.31,2.86-3.48,4.17-8.42,8.93-18.07,16.66-27.48,24.23-10.15,8.03-20.24,15.64-30.78,23.2-13.46,9.37-30.6-1.95-28.47-17.88.17-1.53.66-3.77.98-4.87,2.1-7.51,5.12-14.75,7.94-21.84,9.25-22.55,19.25-44.48,29.53-66.54,0,0,25.27,21.33,25.27,21.33-1.94,1.27-5.8,4.01-7.67,5.41-30.68,22.89-60.26,47.4-90.32,71.15-34.55,27.78-100.81,83.2-103.49,129.01-.44,9.31,2.39,19.52,9.81,25.49,0,0-1.23-.57-1.23-.57,6.73,2.29,13.87,2.04,20.45-.88,6.6-2.86,12.55-7.91,17.66-13.76,10.38-12,17.77-26.63,23.84-41.35,11.33-28.19,18.22-58.24,22.93-88.24.65-3.86,2.44-14.56,3.12-18.57,5.05-28.7,11.19-57.21,18.77-85.35,8.65-32.02,18.98-64.1,30.26-95.32,0,0,25.01,13.22,25.01,13.22-8.54,10.77-17.08,21.55-26.12,31.92-14.99,17.48-30.78,34.32-47.79,49.85-20.54,18.83-67.76,57.45-96.94,47.4-.61-.27-1.29-.58-1.89-1-.8-.49-1.05-1.54-.56-2.34.49-.8,1.54-1.05,2.34-.56h0Z"/>
  </g>
</svg>