<?xml version="1.0" encoding="UTF-8"?>
<svg id="_レイヤー_1" data-name="レイヤー 1" xmlns="http://www.w3.org/2000/svg" width="160.07mm" height="189.34mm" viewBox="0 0 453.74 536.72">
  <defs>
    <style>
      .cls-1 {
        fill: #231815;
        stroke-width: 0px;
      }
    </style>
  </defs>
  <path class="cls-1" d="m243.87,33.96c8.88,0,17.39-7.81,16.98-16.98-.41-9.2-7.46-16.98-16.98-16.98-8.88,0-17.39,7.81-16.98,16.98s7.46,16.98,16.98,16.98h0Z"/>
  <path class="cls-1" d="m16.41,269.85c30.62,2.84,55.33-19.5,76.04-39.18,25.79-24.57,49.83-50.98,71.83-78.97,13.52-17.15,26.22-34.91,38.11-53.16,4.03-6.19,12.32-7.93,18.5-3.9,5.56,3.62,7.53,10.68,4.95,16.57-1.92,4.41-3.99,8.73-5.89,13.15-1,2.42-3.02,7.16-3.96,9.42-3.68,9.27-7.46,19.36-10.67,28.85-5.89,17.04-11.02,35.34-15.81,52.78-23.46,87.86-42.09,179.81-83.71,261.76-9.97,19.09-20.58,39.9-39.58,51.77-20.82,12.98-50.82,10.59-62-13.73-8.86-20.47-2.37-43.85,6.87-62.85,6.76-14.21,15.25-27.66,24.57-40.28,58.52-74.45,132.15-135.37,201.46-198.57,13.89-11.99,33.55,4.27,24.58,20.1-9.15,15.51-16.84,31.88-22.96,48.8-6.06,16.73-10.62,34-13.55,51.54,0,0-27.57-16.23-27.57-16.23,12.2-9.77,24.46-19.48,36.74-29.15,12.28-9.67,24.6-19.3,36.96-28.88,7.1-5.83,17.67-4.66,23.29,2.61,2.38,3.06,3.49,6.72,3.43,10.32-.29,14.44,1.79,28.96,6.11,42.77,0,0-26.1-5.75-26.1-5.75,21.42-21.66,41.49-44.7,60.87-68.32,17.48-21.03,40.89-51.57,58.04-73.29,6.63-8.31,20.01-1.86,17.4,8.63-6.22,23.59-9.5,48.02-9.77,72.48-.91,21.99,9.81,28.91,29.95,22.75,5.76-1.78,11.37-4.41,16.82-7.4.77-.43,1.75-.15,2.18.63.38.7.19,1.55-.42,2.03-12.75,9.69-31.45,20.54-47.35,11.45-6.7-3.87-10.82-11.51-12.4-18.69-.85-3.47-1.27-6.88-1.59-10.15-2.52-25.75-1.5-51.83,3.02-77.37,0,0,17.92,7.98,17.92,7.98-25.7,39.16-51.84,78.12-81.23,114.75-9.84,12.31-20.1,24.35-30.81,36.06-5.75,6.29-15.51,6.72-21.8.97-2.08-1.9-3.47-4.19-4.3-6.71-3.04-8.46-5.38-17.17-6.95-26.04-1.57-8.86-2.44-17.87-2.49-26.9l26.72,12.93c-24.15,19.86-48.42,39.58-72.86,59.07-12.23,9.77-30.14-.92-27.58-16.15,1.65-9.87,3.87-19.63,6.51-29.27,7.88-28.82,20.08-56.44,35.98-81.73,0,0,24.3,20.57,24.3,20.57-57.54,48.05-114.39,96.46-169.67,146.37-13.67,12.52-26.93,25.25-38.89,38.99-8.97,10.29-17.07,21.19-24.07,32.86-11.39,18.04-22.96,50.67-2.28,65.84,11.18,7.58,26.62,5.6,37.89-1.23,15.41-9.56,24.36-25.84,32.2-41.89,43.51-89.2,44.99-190.04,72.18-284.53,5.2-18.33,11.24-36.75,18.17-54.51,3.42-8.86,7.43-17.95,11.39-26.6,2.04-4.38,4.2-8.71,6.34-13.05l23.13,13.4c-6.57,9.26-13.3,18.38-20.29,27.31-28.04,35.45-59.94,67.96-95.26,96.17-22.11,17.48-46.74,36.63-76.04,38.03-5.85.18-11.69-.53-17.22-2.08-.85-.24-1.34-1.12-1.11-1.97.22-.77.97-1.25,1.74-1.15h0Z"/>
</svg>